<?xml version="1.0" encoding="UTF-8" standalone="no"?>
<svg xmlns:svg="http://www.w3.org/2000/svg" xmlns="http://www.w3.org/2000/svg" version="1.0" width="2875" height="1396.2" xml:space="preserve">
<path d="M 0,0 L 2875,0 L 2875,1396.2 L 0,1396.2 L 0,0 z" style="fill:#ffffff" />
<g transform="translate(42,45.2)"><polygon points="1232.5,1215.8 1224.5,1215.8 1224.5,1139.3 1232.5,1137.3 1232.5,1215.8" />
<polygon points="1224.5,1047.8 1228.5,1044.8 1232.5,1047.8 1232.5,1091.8 1224.5,1093.8 1224.5,1047.8" />
<polygon points="1424,664.8 1420,666.8 1416,664.3 1416,520.8 1424,525.3 1424,664.8" />
<polygon points="1544.5,734.3 1544.5,743.8 1420,671.8 1420,666.8 1424,664.8 1544.5,734.3" />
<polygon points="1665.5,664.8 1669.5,666.8 1669.5,671.8 1544.5,743.8 1544.5,734.3 1665.5,664.8" />
<polygon points="1665.5,525.3 1669.5,522.8 1673.5,525.3 1673.5,664.8 1669.5,666.8 1665.5,664.8 1665.5,525.3" />
<polygon points="1544.5,455.8 1544.5,446.3 1665,515.8 1669.5,522.8 1665.5,525.3 1544.5,455.8" />
<polygon points="1424,525.3 1416,520.8 1544.5,446.3 1544.5,455.8 1424,525.3" />
<polygon points="1794,734.3 1794,743.8 1669.5,671.8 1669.5,666.8 1673.5,664.8 1794,734.3" />
<polygon points="1796,705.8 1792,712.8 1693.5,655.3 1697.5,648.8 1796,705.8" />
<polygon points="1915,664.8 1923,669.3 1794,743.8 1794,734.3 1915,664.8" />
<polygon points="1915,525.3 1919,522.8 1923,525.3 1923,669.3 1915,664.8 1915,525.3" />
<polygon points="1794,455.8 1794,450.8 1798,448.8 1914,515.8 1919,522.8 1915,525.3 1794,455.8" />
<polygon points="1673.5,525.3 1669.5,522.8 1674,515.8 1790,448.8 1794,450.8 1794,455.8 1673.5,525.3" />
<polygon points="2039.5,448.8 2043.5,450.8 2044,455.3 1923,525.3 1919,522.8 1923.5,515.8 2039.5,448.8" />
<polygon points="2039.5,309.3 2043.5,306.8 2047.5,309.8 2047.5,448.3 2043.5,450.8 2039.5,448.8 2039.5,309.3" />
<polygon points="1919,239.8 1919,230.3 2039,299.8 2043.5,306.8 2039.5,309.3 1919,239.8" />
<polygon points="1798,309.3 1790,304.8 1919,230.3 1919,239.8 1798,309.3" />
<polygon points="1798,448.8 1794,450.8 1790,448.8 1790,304.8 1798,309.3 1798,448.8" />
<polygon points="2179,490.8 2182,500.3 2044,455.3 2043.5,450.8 2047.5,448.3 2179,490.8" />
<polygon points="2260,378.8 2265,378.8 2267.5,382.3 2182,500.3 2179,490.8 2260,378.8" />
<polygon points="2179,267.3 2180.5,262.3 2185.5,262.3 2266.5,374.3 2265,378.8 2260,378.8 2179,267.3" />
<polygon points="2047.5,309.8 2043.5,306.8 2048,301.3 2178,259.3 2180.5,262.3 2179,267.3 2047.5,309.8" />
<polygon points="2357.5,344.8 2360,352.3 2267.5,382.3 2265,378.8 2266.5,374.3 2357.5,344.8" />
<polygon points="2398,193.3 2402,190.3 2406,192.8 2406,290.3 2398,290.3 2398,193.3" />
<polygon points="2266.5,150.8 2263.5,141.3 2401.5,186.3 2402,190.3 2398,193.3 2266.5,150.8" />
<polygon points="2185.5,262.3 2180.5,262.3 2178,259.3 2263.5,141.3 2266.5,150.8 2185.5,262.3" />
<polygon points="2526.5,401.8 2526.5,411.3 2446.5,364.8 2450.5,357.8 2526.5,401.8" />
<polygon points="2647.5,332.3 2655.5,336.8 2526.5,411.3 2526.5,401.8 2647.5,332.3" />
<polygon points="2647.5,192.8 2655.5,188.3 2655.5,336.8 2647.5,332.3 2647.5,192.8" />
<polygon points="2526.5,123.3 2526.5,113.8 2655.5,188.3 2647.5,192.8 2526.5,123.3" />
<polygon points="2406,192.8 2402,190.3 2401.5,186.3 2526.5,113.8 2526.5,123.3 2406,192.8" />
<polygon points="1342,729.3 1327,703.3 1416,664.3 1420,666.8 1420,671.8 1342,729.3" />
<polygon points="1654.5,379.3 1669.5,379.3 1684.5,379.3 1674,515.8 1669.5,522.8 1665,515.8 1654.5,379.3" />
<polygon points="1904,430.3 1934,430.3 1923.5,515.8 1919,522.8 1914,515.8 1904,430.3" />
<polygon points="2028.5,162.8 2043.5,162.8 2058.5,162.8 2048,301.3 2043.5,306.8 2039,299.8 2028.5,162.8" />
<polygon points="2783,393.3 2765,416.8 2768,419.3 2761.5,414.8 2776,389.8 2783,393.3" />
<polygon points="2762,383.3 2749,405.8 2742.5,401.3 2755,380.3 2762,383.3" />
<polygon points="2741,373.8 2730.5,392.8 2723.5,387.8 2734,370.3 2741,373.8" />
<polygon points="2720,363.8 2711.5,379.3 2704.5,374.8 2713,360.8 2720,363.8" />
<polygon points="2699,354.3 2692.5,365.8 2685.5,361.3 2692,350.8 2699,354.3" />
<polygon points="2678,344.3 2673.5,352.8 2667,347.8 2671,341.3 2678,344.3" />
<polygon points="2387,97.3 2417,97.3 2416,105.3 2388,105.3 2387,97.3" />
<polygon points="2390.5,119.3 2414,119.3 2412.5,127.3 2391.5,127.3 2390.5,119.3" />
<polygon points="2393.5,140.8 2410.5,140.8 2409.5,148.8 2395,148.8 2393.5,140.8" />
<polygon points="2397,162.3 2407,162.3 2406,170.3 2398,170.3 2397,162.3" />
<polygon points="2206.5,14.3 2236,8.8 2235,4.8 2237,12.8 2209.5,21.8 2206.5,14.3" />
<polygon points="2215.5,35.3 2240,27.3 2242,35.3 2218.5,42.8 2215.5,35.3" />
<polygon points="2224.5,56.8 2245.5,50.3 2247,57.8 2228,64.3 2224.5,56.8" />
<polygon points="2233.5,78.3 2250.5,72.8 2252.5,80.3 2237,85.8 2233.5,78.3" />
<polygon points="2243,99.3 2255.5,95.3 2257.5,103.3 2246,106.8 2243,99.3" />
<polygon points="2252,120.8 2261,117.8 2262.5,125.8 2255,128.3 2252,120.8" />
<polygon points="2329.5,442.3 2305.5,459.8 2301.5,452.8 2324,436.8 2329.5,442.3" />
<polygon points="2315,427.8 2296,441.8 2292.5,434.3 2309.5,422.3 2315,427.8" />
<polygon points="2300.5,413.3 2286.5,423.3 2283,415.8 2294.5,407.3 2300.5,413.3" />
<polygon points="2286,398.8 2277.5,404.8 2273.5,397.8 2280,392.8 2286,398.8" />
<polygon points="2143.5,182.3 2172.5,174.3 2173,182.3 2146.5,189.8 2143.5,182.3" />
<polygon points="2155.5,209.3 2175.5,204.3 2176,212.3 2159,216.8 2155.5,209.3" />
<polygon points="2168,236.8 2178.5,234.3 2179,242.3 2171.5,244.3 2168,236.8" />
<polygon points="2058.5,550.8 2028.5,550.8 2029.5,542.8 2057.5,542.8 2058.5,550.8" />
<polygon points="2055,527.3 2032,527.3 2033,519.3 2054,519.3 2055,527.3" />
<polygon points="2052,503.3 2035,503.3 2036,495.3 2051,495.3 2052,503.3" />
<polygon points="2048.5,479.3 2038.5,479.3 2039.5,471.3 2047.5,471.3 2048.5,479.3" />
<polygon points="1809,550.8 1779,550.8 1780,542.8 1808,542.8 1809,550.8" />
<polygon points="1806,527.3 1782.5,527.3 1783.5,519.3 1804.5,519.3 1806,527.3" />
<polygon points="1802.5,503.3 1785.5,503.3 1787,495.3 1801.5,495.3 1802.5,503.3" />
<polygon points="1799,479.3 1789,479.3 1790,471.3 1798,471.3 1799,479.3" />
<polygon points="888,763.3 879,776.3 857.5,766.3 803,652.3 807,651.3 816,657.8 888,763.3" />
<polygon points="1027,726.8 1018,739.8 1019.5,749.8 890.5,783.3 879,776.3 888,763.3 1027,726.8" />
<polygon points="1147.5,768.8 1156.5,776.3 1157,780.3 1033,757.3 1018,739.8 1027,726.8 1147.5,768.8" />
<polygon points="1106.5,697.8 1113.5,693.8 1158.5,771.3 1156.5,776.3 1147.5,768.8 1106.5,697.8" />
<polygon points="945.5,691.8 945.5,687.8 947,683.3 1037,659.8 1039,667.3 945.5,691.8" />
<polygon points="816,657.8 807,651.3 811,648.3 937,681.3 945.5,687.8 945.5,691.8 816,657.8" />
<polygon points="867,560.8 879.5,565.8 947,683.3 945.5,687.8 937,681.3 867,560.8" />
<polygon points="965,534.3 967,542.3 879.5,565.8 867,560.8 965,534.3" />
<polygon points="803,559.3 811,559.3 811,648.3 807,651.3 803,652.3 803,559.3" />
<polygon points="783.5,754.8 786,746.8 857.5,766.3 879,776.3 890.5,783.3 783.5,754.8" />
<polygon points="1248,747.3 1250.5,755.3 1157,780.3 1156.5,776.3 1158.5,771.3 1248,747.3" />
<polygon points="1070.5,822.3 1063.5,826.3 1019.5,749.8 1018,739.8 1033,757.3 1070.5,822.3" />
<polygon points="1094,1005.3 1090,1008.3 1086,1009.3 1086,916.3 1094,916.3 1094,1005.3" />
<polygon points="1152,1085.8 1126,1100.8 1086,1009.3 1090,1008.3 1100,1014.8 1152,1085.8" />
<polygon points="1310.5,1083.8 1301.5,1096.3 1302.5,1106.3 1208,1131.3 1203,1111.8 1310.5,1083.8" />
<polygon points="1431,1125.8 1440,1132.8 1440,1137.3 1316.5,1114.3 1301.5,1096.3 1310.5,1083.8 1431,1125.8" />
<polygon points="1366,1012.8 1368,1008.3 1375,1012.3 1442,1128.3 1440,1132.8 1431,1125.8 1366,1012.8" />
<polygon points="1232.5,1047.8 1228.5,1044.8 1228.5,1040.8 1367.5,1004.3 1368,1008.3 1366,1012.8 1232.5,1047.8" />
<polygon points="1100,1014.8 1090,1008.3 1094,1005.3 1228.5,1040.8 1228.5,1044.8 1224.5,1047.8 1100,1014.8" />
<polygon points="1465.5,1004.3 1465.5,1012.3 1375,1012.3 1368,1008.3 1367.5,1004.3 1465.5,1004.3" />
<polygon points="1531.5,1104.3 1533.5,1111.8 1440,1137.3 1440,1132.8 1442,1128.3 1531.5,1104.3" />
<polygon points="1354.5,1180.3 1347.5,1184.3 1302.5,1106.3 1301.5,1096.3 1316.5,1114.3 1354.5,1180.3" />
<polygon points="332,763.3 323,776.3 304.5,772.3 248.5,656.3 251,651.3 260,657.8 332,763.3" />
<polygon points="471,726.8 462,739.8 463.5,749.8 347,780.3 323,776.3 332,763.3 471,726.8" />
<polygon points="592,768.8 600.5,776.3 601,780.3 477,757.3 462,739.8 471,726.8 592,768.8" />
<polygon points="551,697.8 557.5,693.8 602.5,771.3 600.5,776.3 592,768.8 551,697.8" />
<polygon points="389.5,691.8 389.5,687.8 391.5,683.3 481,659.8 483,667.3 389.5,691.8" />
<polygon points="260,657.8 251,651.3 251,647.3 381,681.3 389.5,687.8 389.5,691.8 260,657.8" />
<polygon points="311,560.8 323.5,565.8 391.5,683.3 389.5,687.8 381,681.3 311,560.8" />
<polygon points="409,534.3 411,542.3 323.5,565.8 311,560.8 409,534.3" />
<polygon points="155,681.3 153,673.3 251,647.3 251,651.3 248.5,656.3 155,681.3" />
<polygon points="223,780.3 223,772.3 304.5,772.3 323,776.3 347,780.3 223,780.3" />
<polygon points="692,747.3 694.5,755.3 601,780.3 600.5,776.3 602.5,771.3 692,747.3" />
<polygon points="514.5,822.3 507.5,826.3 463.5,749.8 462,739.8 477,757.3 514.5,822.3" />
<path d="M 1124.5078,1299.8003 L 1124.5078,1228.2183 L 1133.9805,1228.2183 L 1133.9805,1257.6128 L 1171.1875,1257.6128 L 1171.1875,1228.2183 L 1180.6602,1228.2183 L 1180.6602,1299.8003 L 1171.1875,1299.8003 L 1171.1875,1266.0601 L 1133.9805,1266.0601 L 1133.9805,1299.8003 L 1124.5078,1299.8003 z M 1193.5996,1264.937 C 1193.5996,1253.0555 1196.7897,1243.7538 1203.1699,1237.0317 C 1209.5501,1230.3098 1217.7858,1226.9488 1227.877,1226.9487 C 1234.485,1226.9488 1240.442,1228.5276 1245.748,1231.6851 C 1251.054,1234.8427 1255.0986,1239.2453 1257.8818,1244.8931 C 1260.665,1250.5409 1262.0566,1256.9455 1262.0566,1264.1069 C 1262.0566,1271.3661 1260.5917,1277.8602 1257.6621,1283.5894 C 1254.7324,1289.3185 1250.582,1293.6561 1245.2109,1296.6021 C 1239.8398,1299.548 1234.0455,1301.021 1227.8281,1301.021 C 1221.0898,1301.021 1215.0677,1299.3934 1209.7617,1296.1382 C 1204.4557,1292.883 1200.4355,1288.4396 1197.7012,1282.8081 C 1194.9668,1277.1766 1193.5996,1271.2196 1193.5996,1264.937 L 1193.5996,1264.937 z M 1203.3652,1265.0835 C 1203.3652,1273.7098 1205.6846,1280.5051 1210.3232,1285.4692 C 1214.9619,1290.4334 1220.7806,1292.9155 1227.7793,1292.9155 C 1234.9082,1292.9155 1240.7757,1290.409 1245.3818,1285.396 C 1249.9879,1280.383 1252.291,1273.2704 1252.291,1264.0581 C 1252.291,1258.2313 1251.3063,1253.1451 1249.3369,1248.7993 C 1247.3675,1244.4537 1244.4866,1241.0845 1240.6943,1238.6919 C 1236.902,1236.2994 1232.6458,1235.1031 1227.9258,1235.103 C 1221.22,1235.1031 1215.4502,1237.4061 1210.6162,1242.0122 C 1205.7822,1246.6184 1203.3652,1254.3088 1203.3652,1265.0835 L 1203.3652,1265.0835 z" />
<path d="M 2374.6172,373.29999 L 2374.6172,301.71796 L 2384.334,301.71796 L 2421.9316,357.91913 L 2421.9316,301.71796 L 2431.0137,301.71796 L 2431.0137,373.29999 L 2421.2969,373.29999 L 2383.6992,317.04999 L 2383.6992,373.29999 L 2374.6172,373.29999 z" />
<path d="M 1891.0078,418.29999 L 1891.0078,346.71796 L 1900.4805,346.71796 L 1900.4805,376.11249 L 1937.6875,376.11249 L 1937.6875,346.71796 L 1947.1602,346.71796 L 1947.1602,418.29999 L 1937.6875,418.29999 L 1937.6875,384.55975 L 1900.4805,384.55975 L 1900.4805,418.29999 L 1891.0078,418.29999 z" />
<path d="M 2374.0078,85.800003 L 2374.0078,14.217972 L 2383.4805,14.217972 L 2383.4805,43.612503 L 2420.6875,43.612503 L 2420.6875,14.217972 L 2430.1602,14.217972 L 2430.1602,85.800003 L 2420.6875,85.800003 L 2420.6875,52.059769 L 2383.4805,52.059769 L 2383.4805,85.800003 L 2374.0078,85.800003 z" />
<path d="M 2321.5078,534.29791 L 2321.5078,462.71588 L 2330.9805,462.71588 L 2330.9805,492.11041 L 2368.1875,492.11041 L 2368.1875,462.71588 L 2377.6602,462.71588 L 2377.6602,534.29791 L 2368.1875,534.29791 L 2368.1875,500.55768 L 2330.9805,500.55768 L 2330.9805,534.29791 L 2321.5078,534.29791 z" />
<path d="M 2115.0078,162.3 L 2115.0078,90.717972 L 2124.4805,90.717972 L 2124.4805,120.1125 L 2161.6875,120.1125 L 2161.6875,90.717972 L 2171.1602,90.717972 L 2171.1602,162.3 L 2161.6875,162.3 L 2161.6875,128.55977 L 2124.4805,128.55977 L 2124.4805,162.3 L 2115.0078,162.3 z" />
<path d="M 2015.5078,633.79999 L 2015.5078,562.21796 L 2024.9805,562.21796 L 2024.9805,591.61249 L 2062.1875,591.61249 L 2062.1875,562.21796 L 2071.6602,562.21796 L 2071.6602,633.79999 L 2062.1875,633.79999 L 2062.1875,600.05975 L 2024.9805,600.05975 L 2024.9805,633.79999 L 2015.5078,633.79999 z" />
<path d="M 1766.0078,633.79999 L 1766.0078,562.21796 L 1775.4805,562.21796 L 1775.4805,591.61249 L 1812.6875,591.61249 L 1812.6875,562.21796 L 1822.1602,562.21796 L 1822.1602,633.79999 L 1812.6875,633.79999 L 1812.6875,600.05975 L 1775.4805,600.05975 L 1775.4805,633.79999 L 1766.0078,633.79999 z" />
<path d="M 1050.334,655.43414 C 1050.334,643.55268 1053.5241,634.25093 1059.9043,627.52887 C 1066.2845,620.80693 1074.5202,617.44593 1084.6113,617.44586 C 1091.2194,617.44593 1097.1764,619.02471 1102.4824,622.18219 C 1107.7883,625.33981 1111.8329,629.74247 1114.6162,635.3902 C 1117.3993,641.03803 1118.7909,647.44265 1118.791,654.60406 C 1118.7909,661.86321 1117.3261,668.35734 1114.3965,674.08649 C 1111.4667,679.81566 1107.3163,684.15322 1101.9453,687.09918 C 1096.5742,690.04515 1090.7799,691.51813 1084.5625,691.51813 C 1077.8242,691.51813 1071.8021,689.89052 1066.4961,686.63531 C 1061.1901,683.38011 1057.1699,678.93676 1054.4355,673.30524 C 1051.7012,667.67375 1050.334,661.71672 1050.334,655.43414 L 1050.334,655.43414 z M 1060.0996,655.58063 C 1060.0996,664.20696 1062.4189,671.0022 1067.0576,675.96637 C 1071.6963,680.93057 1077.5149,683.41267 1084.5137,683.41266 C 1091.6425,683.41267 1097.51,680.90616 1102.1162,675.89313 C 1106.7223,670.88013 1109.0253,663.7675 1109.0254,654.55524 C 1109.0253,648.72846 1108.0406,643.6422 1106.0713,639.29645 C 1104.1018,634.9508 1101.221,631.58166 1097.4287,629.18903 C 1093.6363,626.79651 1089.3802,625.60022 1084.6602,625.60016 C 1077.9544,625.60022 1072.1845,627.90328 1067.3506,632.50934 C 1062.5166,637.11551 1060.0996,644.80593 1060.0996,655.58063 L 1060.0996,655.58063 z" />
<path d="M 978.33398,529.93671 C 978.33398,518.05524 981.52408,508.75349 987.9043,502.03143 C 994.28448,495.3095 1002.5202,491.9485 1012.6113,491.94843 C 1019.2194,491.9485 1025.1764,493.52727 1030.4824,496.68475 C 1035.7883,499.84237 1039.8329,504.24504 1042.6162,509.89276 C 1045.3993,515.5406 1046.7909,521.94521 1046.791,529.10663 C 1046.7909,536.36577 1045.3261,542.85991 1042.3965,548.58905 C 1039.4667,554.31823 1035.3163,558.65579 1029.9453,561.60175 C 1024.5742,564.54771 1018.7799,566.02069 1012.5625,566.02069 C 1005.8242,566.02069 999.80206,564.39309 994.49609,561.13788 C 989.19009,557.88268 985.16991,553.43932 982.43555,547.8078 C 979.70117,542.17631 978.33398,536.21929 978.33398,529.93671 L 978.33398,529.93671 z M 988.09961,530.08319 C 988.09959,538.70952 990.41893,545.50476 995.05762,550.46893 C 999.69626,555.43314 1005.5149,557.91523 1012.5137,557.91522 C 1019.6425,557.91523 1025.51,555.40872 1030.1162,550.39569 C 1034.7223,545.38269 1037.0253,538.27007 1037.0254,529.0578 C 1037.0253,523.23102 1036.0406,518.14476 1034.0713,513.79901 C 1032.1018,509.45336 1029.221,506.08423 1025.4287,503.69159 C 1021.6363,501.29907 1017.3802,500.10279 1012.6602,500.10272 C 1005.9544,500.10279 1000.1845,502.40584 995.35059,507.0119 C 990.51658,511.61807 988.09959,519.3085 988.09961,530.08319 L 988.09961,530.08319 z M 1059.2422,564.79999 L 1059.2422,493.21796 L 1068.7148,493.21796 L 1068.7148,522.61249 L 1105.9219,522.61249 L 1105.9219,493.21796 L 1115.3945,493.21796 L 1115.3945,564.79999 L 1105.9219,564.79999 L 1105.9219,531.05975 L 1068.7148,531.05975 L 1068.7148,564.79999 L 1059.2422,564.79999 z" />
<path d="M 703.00781,546.29999 L 703.00781,474.71796 L 712.48047,474.71796 L 712.48047,504.11249 L 749.6875,504.11249 L 749.6875,474.71796 L 759.16016,474.71796 L 759.16016,546.29999 L 749.6875,546.29999 L 749.6875,512.55975 L 712.48047,512.55975 L 712.48047,546.29999 L 703.00781,546.29999 z M 772.09961,511.43671 C 772.0996,499.55524 775.28971,490.25349 781.66992,483.53143 C 788.05011,476.8095 796.28578,473.4485 806.37695,473.44843 C 812.98498,473.4485 818.94201,475.02727 824.24805,478.18475 C 829.55397,481.34237 833.59857,485.74504 836.38184,491.39276 C 839.16497,497.0406 840.55657,503.44521 840.55664,510.60663 C 840.55657,517.86577 839.09173,524.35991 836.16211,530.08905 C 833.23236,535.81823 829.08197,540.15579 823.71094,543.10175 C 818.33979,546.04771 812.54553,547.52069 806.32813,547.52069 C 799.58981,547.52069 793.56768,545.89309 788.26172,542.63788 C 782.95571,539.38268 778.93554,534.93932 776.20117,529.3078 C 773.46679,523.67631 772.0996,517.71929 772.09961,511.43671 L 772.09961,511.43671 z M 781.86523,511.58319 C 781.86522,520.20952 784.18455,527.00476 788.82324,531.96893 C 793.46189,536.93314 799.28057,539.41523 806.2793,539.41522 C 813.40816,539.41523 819.27566,536.90872 823.88184,531.89569 C 828.48789,526.88269 830.79095,519.77007 830.79102,510.5578 C 830.79095,504.73102 829.80625,499.64476 827.83691,495.29901 C 825.86745,490.95336 822.9866,487.58423 819.19434,485.19159 C 815.40197,482.79907 811.14579,481.60279 806.42578,481.60272 C 799.72002,481.60279 793.95017,483.90584 789.11621,488.5119 C 784.28221,493.11807 781.86522,500.8085 781.86523,511.58319 L 781.86523,511.58319 z" />
<path d="M 1261.334,742.93671 C 1261.334,731.05524 1264.5241,721.75349 1270.9043,715.03143 C 1277.2845,708.3095 1285.5202,704.9485 1295.6113,704.94843 C 1302.2194,704.9485 1308.1764,706.52727 1313.4824,709.68475 C 1318.7883,712.84237 1322.8329,717.24504 1325.6162,722.89276 C 1328.3993,728.5406 1329.7909,734.94521 1329.791,742.10663 C 1329.7909,749.36577 1328.3261,755.85991 1325.3965,761.58905 C 1322.4667,767.31823 1318.3163,771.65579 1312.9453,774.60175 C 1307.5742,777.54771 1301.7799,779.02069 1295.5625,779.02069 C 1288.8242,779.02069 1282.8021,777.39309 1277.4961,774.13788 C 1272.1901,770.88268 1268.1699,766.43932 1265.4355,760.8078 C 1262.7012,755.17631 1261.334,749.21929 1261.334,742.93671 L 1261.334,742.93671 z M 1271.0996,743.08319 C 1271.0996,751.70952 1273.4189,758.50476 1278.0576,763.46893 C 1282.6963,768.43314 1288.5149,770.91523 1295.5137,770.91522 C 1302.6425,770.91523 1308.51,768.40872 1313.1162,763.39569 C 1317.7223,758.38269 1320.0253,751.27007 1320.0254,742.0578 C 1320.0253,736.23102 1319.0406,731.14476 1317.0713,726.79901 C 1315.1018,722.45336 1312.221,719.08423 1308.4287,716.69159 C 1304.6363,714.29907 1300.3802,713.10279 1295.6602,713.10272 C 1288.9544,713.10279 1283.1845,715.40584 1278.3506,720.0119 C 1273.5166,724.61807 1271.0996,732.3085 1271.0996,743.08319 L 1271.0996,743.08319 z" />
<path d="M 1055.834,868.43671 C 1055.834,856.55524 1059.0241,847.25349 1065.4043,840.53143 C 1071.7845,833.8095 1080.0202,830.4485 1090.1113,830.44843 C 1096.7194,830.4485 1102.6764,832.02727 1107.9824,835.18475 C 1113.2883,838.34237 1117.3329,842.74504 1120.1162,848.39276 C 1122.8993,854.0406 1124.2909,860.44521 1124.291,867.60663 C 1124.2909,874.86577 1122.8261,881.35991 1119.8965,887.08905 C 1116.9667,892.81823 1112.8163,897.15579 1107.4453,900.10175 C 1102.0742,903.04771 1096.2799,904.52069 1090.0625,904.52069 C 1083.3242,904.52069 1077.3021,902.89309 1071.9961,899.63788 C 1066.6901,896.38268 1062.6699,891.93932 1059.9355,886.3078 C 1057.2012,880.67631 1055.834,874.71929 1055.834,868.43671 L 1055.834,868.43671 z M 1065.5996,868.58319 C 1065.5996,877.20952 1067.9189,884.00476 1072.5576,888.96893 C 1077.1963,893.93314 1083.0149,896.41523 1090.0137,896.41522 C 1097.1425,896.41523 1103.01,893.90872 1107.6162,888.89569 C 1112.2223,883.88269 1114.5253,876.77007 1114.5254,867.5578 C 1114.5253,861.73102 1113.5406,856.64476 1111.5713,852.29901 C 1109.6018,847.95336 1106.721,844.58423 1102.9287,842.19159 C 1099.1363,839.79907 1094.8802,838.60279 1090.1602,838.60272 C 1083.4544,838.60279 1077.6845,840.90584 1072.8506,845.5119 C 1068.0166,850.11807 1065.5996,857.8085 1065.5996,868.58319 L 1065.5996,868.58319 z" />
<path d="M 1127.834,1136.9368 C 1127.834,1125.0553 1131.0241,1115.7536 1137.4043,1109.0315 C 1143.7845,1102.3096 1152.0202,1098.9486 1162.1113,1098.9485 C 1168.7194,1098.9486 1174.6764,1100.5273 1179.9824,1103.6848 C 1185.2883,1106.8424 1189.3329,1111.2451 1192.1162,1116.8928 C 1194.8993,1122.5407 1196.2909,1128.9453 1196.291,1136.1067 C 1196.2909,1143.3658 1194.8261,1149.86 1191.8965,1155.5891 C 1188.9667,1161.3183 1184.8163,1165.6558 1179.4453,1168.6018 C 1174.0742,1171.5478 1168.2799,1173.0208 1162.0625,1173.0208 C 1155.3242,1173.0208 1149.3021,1171.3931 1143.9961,1168.1379 C 1138.6901,1164.8827 1134.6699,1160.4394 1131.9355,1154.8079 C 1129.2012,1149.1764 1127.834,1143.2193 1127.834,1136.9368 L 1127.834,1136.9368 z M 1137.5996,1137.0833 C 1137.5996,1145.7096 1139.9189,1152.5048 1144.5576,1157.469 C 1149.1963,1162.4332 1155.0149,1164.9153 1162.0137,1164.9153 C 1169.1425,1164.9153 1175.01,1162.4088 1179.6162,1157.3958 C 1184.2223,1152.3828 1186.5253,1145.2701 1186.5254,1136.0579 C 1186.5253,1130.2311 1185.5406,1125.1448 1183.5713,1120.7991 C 1181.6018,1116.4534 1178.721,1113.0843 1174.9287,1110.6917 C 1171.1363,1108.2991 1166.8802,1107.1028 1162.1602,1107.1028 C 1155.4544,1107.1028 1149.6845,1109.4059 1144.8506,1114.012 C 1140.0166,1118.6181 1137.5996,1126.3086 1137.5996,1137.0833 L 1137.5996,1137.0833 z" />
<path d="M 1477.834,1012.4368 C 1477.834,1000.5553 1481.0241,991.25356 1487.4043,984.53149 C 1493.7845,977.80956 1502.0202,974.44856 1512.1113,974.44849 C 1518.7194,974.44856 1524.6764,976.02733 1529.9824,979.18481 C 1535.2883,982.34243 1539.3329,986.7451 1542.1162,992.39282 C 1544.8993,998.04066 1546.2909,1004.4453 1546.291,1011.6067 C 1546.2909,1018.8658 1544.8261,1025.36 1541.8965,1031.0891 C 1538.9667,1036.8183 1534.8163,1041.1558 1529.4453,1044.1018 C 1524.0742,1047.0478 1518.2799,1048.5208 1512.0625,1048.5208 C 1505.3242,1048.5208 1499.3021,1046.8931 1493.9961,1043.6379 C 1488.6901,1040.3827 1484.6699,1035.9394 1481.9355,1030.3079 C 1479.2012,1024.6764 1477.834,1018.7193 1477.834,1012.4368 L 1477.834,1012.4368 z M 1487.5996,1012.5833 C 1487.5996,1021.2096 1489.9189,1028.0048 1494.5576,1032.969 C 1499.1963,1037.9332 1505.0149,1040.4153 1512.0137,1040.4153 C 1519.1425,1040.4153 1525.01,1037.9088 1529.6162,1032.8958 C 1534.2223,1027.8828 1536.5253,1020.7701 1536.5254,1011.5579 C 1536.5253,1005.7311 1535.5406,1000.6448 1533.5713,996.29907 C 1531.6018,991.95342 1528.721,988.58429 1524.9287,986.19165 C 1521.1363,983.79914 1516.8802,982.60285 1512.1602,982.60278 C 1505.4544,982.60285 1499.6845,984.90591 1494.8506,989.51196 C 1490.0166,994.11814 1487.5996,1001.8086 1487.5996,1012.5833 L 1487.5996,1012.5833 z M 1558.7422,1047.3 L 1558.7422,975.71802 L 1568.2148,975.71802 L 1568.2148,1005.1125 L 1605.4219,1005.1125 L 1605.4219,975.71802 L 1614.8945,975.71802 L 1614.8945,1047.3 L 1605.4219,1047.3 L 1605.4219,1013.5598 L 1568.2148,1013.5598 L 1568.2148,1047.3 L 1558.7422,1047.3 z" />
<path d="M 1544.8345,1099.9368 C 1544.8345,1088.0553 1548.0246,1078.7536 1554.4048,1072.0315 C 1560.785,1065.3096 1569.0206,1061.9486 1579.1118,1061.9485 C 1585.7198,1061.9486 1591.6769,1063.5273 1596.9829,1066.6848 C 1602.2888,1069.8424 1606.3334,1074.2451 1609.1167,1079.8928 C 1611.8998,1085.5407 1613.2914,1091.9453 1613.2915,1099.1067 C 1613.2914,1106.3658 1611.8266,1112.86 1608.897,1118.5891 C 1605.9672,1124.3183 1601.8168,1128.6558 1596.4458,1131.6018 C 1591.0747,1134.5478 1585.2804,1136.0208 1579.063,1136.0208 C 1572.3247,1136.0208 1566.3025,1134.3931 1560.9966,1131.1379 C 1555.6906,1127.8827 1551.6704,1123.4394 1548.936,1117.8079 C 1546.2017,1112.1764 1544.8345,1106.2193 1544.8345,1099.9368 L 1544.8345,1099.9368 z M 1554.6001,1100.0833 C 1554.6001,1108.7096 1556.9194,1115.5048 1561.5581,1120.469 C 1566.1968,1125.4332 1572.0154,1127.9153 1579.0142,1127.9153 C 1586.143,1127.9153 1592.0105,1125.4088 1596.6167,1120.3958 C 1601.2228,1115.3828 1603.5258,1108.2701 1603.5259,1099.0579 C 1603.5258,1093.2311 1602.5411,1088.1448 1600.5718,1083.7991 C 1598.6023,1079.4534 1595.7215,1076.0843 1591.9292,1073.6917 C 1588.1368,1071.2991 1583.8807,1070.1028 1579.1606,1070.1028 C 1572.4549,1070.1028 1566.685,1072.4059 1561.8511,1077.012 C 1557.0171,1081.6181 1554.6001,1089.3086 1554.6001,1100.0833 L 1554.6001,1100.0833 z M 1625.7427,1134.8 L 1625.7427,1063.218 L 1635.2153,1063.218 L 1635.2153,1092.6125 L 1672.4224,1092.6125 L 1672.4224,1063.218 L 1681.895,1063.218 L 1681.895,1134.8 L 1672.4224,1134.8 L 1672.4224,1101.0598 L 1635.2153,1101.0598 L 1635.2153,1134.8 L 1625.7427,1134.8 z" />
<path d="M 1395.2891,1235.2024 L 1404.7617,1237.595 C 1402.776,1245.3749 1399.2034,1251.3075 1394.0439,1255.3928 C 1388.8844,1259.4781 1382.5774,1261.5208 1375.123,1261.5208 C 1367.4082,1261.5208 1361.1338,1259.9501 1356.2998,1256.8088 C 1351.4658,1253.6676 1347.7874,1249.1184 1345.2646,1243.1614 C 1342.7419,1237.2044 1341.4805,1230.8079 1341.4805,1223.9719 C 1341.4805,1216.5175 1342.9046,1210.0153 1345.7529,1204.4651 C 1348.6012,1198.915 1352.654,1194.6995 1357.9111,1191.8186 C 1363.1683,1188.9378 1368.9544,1187.4974 1375.2695,1187.4973 C 1382.4309,1187.4974 1388.4531,1189.3203 1393.3359,1192.9661 C 1398.2187,1196.612 1401.6204,1201.7389 1403.541,1208.3469 L 1394.2148,1210.5442 C 1392.5546,1205.3359 1390.1458,1201.5436 1386.9883,1199.1672 C 1383.8307,1196.791 1379.8593,1195.6028 1375.0742,1195.6028 C 1369.5729,1195.6028 1364.9749,1196.9212 1361.2803,1199.5579 C 1357.5856,1202.1946 1354.9896,1205.7347 1353.4922,1210.178 C 1351.9948,1214.6214 1351.2461,1219.2031 1351.2461,1223.9231 C 1351.2461,1230.0104 1352.1331,1235.3245 1353.9072,1239.8655 C 1355.6813,1244.4065 1358.4401,1247.8001 1362.1836,1250.0461 C 1365.9271,1252.2922 1369.9798,1253.4153 1374.3418,1253.4153 C 1379.6477,1253.4153 1384.1399,1251.8853 1387.8184,1248.8254 C 1391.4967,1245.7656 1393.9869,1241.2245 1395.2891,1235.2024 L 1395.2891,1235.2024 z M 1416.7734,1260.3 L 1416.7734,1188.718 L 1426.2461,1188.718 L 1426.2461,1218.1125 L 1463.4531,1218.1125 L 1463.4531,1188.718 L 1472.9258,1188.718 L 1472.9258,1260.3 L 1463.4531,1260.3 L 1463.4531,1226.5598 L 1426.2461,1226.5598 L 1426.2461,1260.3 L 1416.7734,1260.3 z" />
<path d="M 1484.0494,1264.8276 L 1490.6412,1263.9487 C 1491.3981,1267.6841 1492.6859,1270.3757 1494.5048,1272.0237 C 1496.3236,1273.6716 1498.5392,1274.4956 1501.1515,1274.4956 C 1504.2521,1274.4956 1506.8705,1273.4214 1509.0067,1271.2729 C 1511.1429,1269.1245 1512.211,1266.4634 1512.2111,1263.2896 C 1512.211,1260.2622 1511.2223,1257.7659 1509.2448,1255.8005 C 1507.2672,1253.8352 1504.7525,1252.8526 1501.7008,1252.8525 C 1500.4557,1252.8526 1498.9054,1253.0967 1497.0499,1253.585 L 1497.7823,1247.7988 C 1498.2218,1247.8477 1498.5758,1247.8721 1498.8444,1247.8721 C 1501.652,1247.8721 1504.1788,1247.1397 1506.4249,1245.6748 C 1508.671,1244.21 1509.794,1241.9517 1509.7941,1238.8999 C 1509.794,1236.483 1508.9762,1234.481 1507.3405,1232.894 C 1505.7047,1231.3072 1503.5929,1230.5137 1501.005,1230.5137 C 1498.4415,1230.5137 1496.3053,1231.3194 1494.5963,1232.9307 C 1492.8873,1234.542 1491.7887,1236.959 1491.3004,1240.1816 L 1484.7086,1239.0098 C 1485.5143,1234.5909 1487.3453,1231.1668 1490.2018,1228.7375 C 1493.0582,1226.3084 1496.6105,1225.0938 1500.8585,1225.0938 C 1503.7882,1225.0938 1506.4859,1225.7225 1508.9518,1226.9797 C 1511.4176,1228.2371 1513.3036,1229.9522 1514.6097,1232.125 C 1515.9159,1234.2979 1516.5689,1236.605 1516.569,1239.0464 C 1516.5689,1241.3658 1515.9464,1243.4776 1514.7013,1245.3818 C 1513.4561,1247.2862 1511.6129,1248.7998 1509.1715,1249.9229 C 1512.3453,1250.6553 1514.8111,1252.1751 1516.569,1254.4822 C 1518.3267,1256.7893 1519.2057,1259.6763 1519.2057,1263.1431 C 1519.2057,1267.8306 1517.4967,1271.804 1514.0787,1275.0632 C 1510.6607,1278.3225 1506.3395,1279.9521 1501.1149,1279.9521 C 1496.4029,1279.9521 1492.4906,1278.5483 1489.3778,1275.7407 C 1486.265,1272.9331 1484.4889,1269.2954 1484.0494,1264.8276 L 1484.0494,1264.8276 z" style="font-size:75px;font-family:Helvetica, Arial, sans-serif" />
<path d="M 494.33398,655.43671 C 494.33398,643.55524 497.52408,634.25349 503.9043,627.53143 C 510.28448,620.8095 518.52015,617.4485 528.61133,617.44843 C 535.21936,617.4485 541.17638,619.02727 546.48242,622.18475 C 551.78835,625.34237 555.83294,629.74504 558.61621,635.39276 C 561.39934,641.0406 562.79094,647.44521 562.79102,654.60663 C 562.79094,661.86577 561.3261,668.35991 558.39648,674.08905 C 555.46673,679.81823 551.31634,684.15579 545.94531,687.10175 C 540.57417,690.04771 534.7799,691.52069 528.5625,691.52069 C 521.82419,691.52069 515.80206,689.89309 510.49609,686.63788 C 505.19009,683.38268 501.16991,678.93932 498.43555,673.3078 C 495.70117,667.67631 494.33398,661.71929 494.33398,655.43671 L 494.33398,655.43671 z M 504.09961,655.58319 C 504.09959,664.20952 506.41893,671.00476 511.05762,675.96893 C 515.69626,680.93314 521.51494,683.41523 528.51367,683.41522 C 535.64253,683.41523 541.51004,680.90872 546.11621,675.89569 C 550.72227,670.88269 553.02533,663.77007 553.02539,654.5578 C 553.02533,648.73102 552.04063,643.64476 550.07129,639.29901 C 548.10183,634.95336 545.22097,631.58423 541.42871,629.19159 C 537.63635,626.79907 533.38016,625.60279 528.66016,625.60272 C 521.95439,625.60279 516.18454,627.90584 511.35059,632.5119 C 506.51658,637.11807 504.09959,644.8085 504.09961,655.58319 L 504.09961,655.58319 z" />
<path d="M 422.33398,529.93671 C 422.33398,518.05524 425.52408,508.75349 431.9043,502.03143 C 438.28448,495.3095 446.52015,491.9485 456.61133,491.94843 C 463.21936,491.9485 469.17638,493.52727 474.48242,496.68475 C 479.78835,499.84237 483.83294,504.24504 486.61621,509.89276 C 489.39934,515.5406 490.79094,521.94521 490.79102,529.10663 C 490.79094,536.36577 489.3261,542.85991 486.39648,548.58905 C 483.46673,554.31823 479.31634,558.65579 473.94531,561.60175 C 468.57417,564.54771 462.7799,566.02069 456.5625,566.02069 C 449.82419,566.02069 443.80206,564.39309 438.49609,561.13788 C 433.19009,557.88268 429.16991,553.43932 426.43555,547.8078 C 423.70117,542.17631 422.33398,536.21929 422.33398,529.93671 L 422.33398,529.93671 z M 432.09961,530.08319 C 432.09959,538.70952 434.41893,545.50476 439.05762,550.46893 C 443.69626,555.43314 449.51494,557.91523 456.51367,557.91522 C 463.64253,557.91523 469.51004,555.40872 474.11621,550.39569 C 478.72227,545.38269 481.02533,538.27007 481.02539,529.0578 C 481.02533,523.23102 480.04063,518.14476 478.07129,513.79901 C 476.10183,509.45336 473.22097,506.08423 469.42871,503.69159 C 465.63635,501.29907 461.38016,500.10279 456.66016,500.10272 C 449.95439,500.10279 444.18454,502.40584 439.35059,507.0119 C 434.51658,511.61807 432.09959,519.3085 432.09961,530.08319 L 432.09961,530.08319 z M 503.24219,564.79999 L 503.24219,493.21796 L 512.71484,493.21796 L 512.71484,522.61249 L 549.92188,522.61249 L 549.92188,493.21796 L 559.39453,493.21796 L 559.39453,564.79999 L 549.92188,564.79999 L 549.92188,531.05975 L 512.71484,531.05975 L 512.71484,564.79999 L 503.24219,564.79999 z" />
<path d="M 8.0078125,727.79742 L 8.0078125,656.21539 L 17.480469,656.21539 L 17.480469,685.60992 L 54.6875,685.60992 L 54.6875,656.21539 L 64.160156,656.21539 L 64.160156,727.79742 L 54.6875,727.79742 L 54.6875,694.05719 L 17.480469,694.05719 L 17.480469,727.79742 L 8.0078125,727.79742 z M 77.099609,692.93414 C 77.099605,681.05268 80.289706,671.75093 86.669922,665.02887 C 93.050109,658.30693 101.28578,654.94593 111.37695,654.94586 C 117.98498,654.94593 123.94201,656.52471 129.24805,659.68219 C 134.55397,662.83981 138.59857,667.24247 141.38184,672.8902 C 144.16497,678.53803 145.55657,684.94265 145.55664,692.10406 C 145.55657,699.36321 144.09173,705.85734 141.16211,711.58649 C 138.23236,717.31566 134.08197,721.65322 128.71094,724.59918 C 123.33979,727.54515 117.54553,729.01813 111.32813,729.01813 C 104.58981,729.01813 98.567682,727.39052 93.261719,724.13531 C 87.955713,720.88011 83.935535,716.43676 81.201172,710.80524 C 78.466791,705.17375 77.099605,699.21672 77.099609,692.93414 L 77.099609,692.93414 z M 86.865234,693.08063 C 86.86522,701.70696 89.184553,708.5022 93.823242,713.46637 C 98.461888,718.43057 104.28057,720.91267 111.2793,720.91266 C 118.40816,720.91267 124.27566,718.40616 128.88184,713.39313 C 133.48789,708.38013 135.79095,701.2675 135.79102,692.05524 C 135.79095,686.22846 134.80625,681.1422 132.83691,676.79645 C 130.86745,672.4508 127.9866,669.08166 124.19434,666.68903 C 120.40197,664.29651 116.14579,663.10022 111.42578,663.10016 C 104.72002,663.10022 98.950169,665.40328 94.116211,670.00934 C 89.28221,674.61551 86.86522,682.30593 86.865234,693.08063 L 86.865234,693.08063 z" />
<path d="M 75.007813,815.29999 L 75.007813,743.71796 L 84.480469,743.71796 L 84.480469,773.11249 L 121.6875,773.11249 L 121.6875,743.71796 L 131.16016,743.71796 L 131.16016,815.29999 L 121.6875,815.29999 L 121.6875,781.55975 L 84.480469,781.55975 L 84.480469,815.29999 L 75.007813,815.29999 z M 144.09961,780.43671 C 144.0996,768.55524 147.28971,759.25349 153.66992,752.53143 C 160.05011,745.8095 168.28578,742.4485 178.37695,742.44843 C 184.98498,742.4485 190.94201,744.02727 196.24805,747.18475 C 201.55397,750.34237 205.59857,754.74504 208.38184,760.39276 C 211.16497,766.0406 212.55657,772.44521 212.55664,779.60663 C 212.55657,786.86577 211.09173,793.35991 208.16211,799.08905 C 205.23236,804.81823 201.08197,809.15579 195.71094,812.10175 C 190.33979,815.04771 184.54553,816.52069 178.32813,816.52069 C 171.58981,816.52069 165.56768,814.89309 160.26172,811.63788 C 154.95571,808.38268 150.93554,803.93932 148.20117,798.3078 C 145.46679,792.67631 144.0996,786.71929 144.09961,780.43671 L 144.09961,780.43671 z M 153.86523,780.58319 C 153.86522,789.20952 156.18455,796.00476 160.82324,800.96893 C 165.46189,805.93314 171.28057,808.41523 178.2793,808.41522 C 185.40816,808.41523 191.27566,805.90872 195.88184,800.89569 C 200.48789,795.88269 202.79095,788.77007 202.79102,779.5578 C 202.79095,773.73102 201.80625,768.64476 199.83691,764.29901 C 197.86745,759.95336 194.9866,756.58423 191.19434,754.19159 C 187.40197,751.79907 183.14579,750.60279 178.42578,750.60272 C 171.72002,750.60279 165.95017,752.90584 161.11621,757.5119 C 156.28221,762.11807 153.86522,769.8085 153.86523,780.58319 L 153.86523,780.58319 z" />
<path d="M 705.33398,742.93671 C 705.33398,731.05524 708.52408,721.75349 714.9043,715.03143 C 721.28448,708.3095 729.52015,704.9485 739.61133,704.94843 C 746.21936,704.9485 752.17638,706.52727 757.48242,709.68475 C 762.78835,712.84237 766.83294,717.24504 769.61621,722.89276 C 772.39934,728.5406 773.79094,734.94521 773.79102,742.10663 C 773.79094,749.36577 772.3261,755.85991 769.39648,761.58905 C 766.46673,767.31823 762.31634,771.65579 756.94531,774.60175 C 751.57417,777.54771 745.7799,779.02069 739.5625,779.02069 C 732.82419,779.02069 726.80206,777.39309 721.49609,774.13788 C 716.19009,770.88268 712.16991,766.43932 709.43555,760.8078 C 706.70117,755.17631 705.33398,749.21929 705.33398,742.93671 L 705.33398,742.93671 z M 715.09961,743.08319 C 715.09959,751.70952 717.41893,758.50476 722.05762,763.46893 C 726.69626,768.43314 732.51494,770.91523 739.51367,770.91522 C 746.64253,770.91523 752.51004,768.40872 757.11621,763.39569 C 761.72227,758.38269 764.02533,751.27007 764.02539,742.0578 C 764.02533,736.23102 763.04063,731.14476 761.07129,726.79901 C 759.10183,722.45336 756.22097,719.08423 752.42871,716.69159 C 748.63635,714.29907 744.38016,713.10279 739.66016,713.10272 C 732.95439,713.10279 727.18454,715.40584 722.35059,720.0119 C 717.51658,724.61807 715.09959,732.3085 715.09961,743.08319 L 715.09961,743.08319 z" />
<path d="M 499.83499,868.43671 C 499.83499,856.55524 503.02509,847.25349 509.4053,840.53143 C 515.78549,833.8095 524.02116,830.4485 534.11234,830.44843 C 540.72036,830.4485 546.67739,832.02727 551.98343,835.18475 C 557.28936,838.34237 561.33395,842.74504 564.11722,848.39276 C 566.90035,854.0406 568.29195,860.44521 568.29202,867.60663 C 568.29195,874.86577 566.82711,881.35991 563.89749,887.08905 C 560.96774,892.81823 556.81735,897.15579 551.44632,900.10175 C 546.07517,903.04771 540.28091,904.52069 534.06351,904.52069 C 527.32519,904.52069 521.30306,902.89309 515.9971,899.63788 C 510.6911,896.38268 506.67092,891.93932 503.93655,886.3078 C 501.20217,880.67631 499.83499,874.71929 499.83499,868.43671 L 499.83499,868.43671 z M 509.60062,868.58319 C 509.6006,877.20952 511.91994,884.00476 516.55862,888.96893 C 521.19727,893.93314 527.01595,896.41523 534.01468,896.41522 C 541.14354,896.41523 547.01105,893.90872 551.61722,888.89569 C 556.22328,883.88269 558.52633,876.77007 558.5264,867.5578 C 558.52633,861.73102 557.54163,856.64476 555.5723,852.29901 C 553.60284,847.95336 550.72198,844.58423 546.92972,842.19159 C 543.13735,839.79907 538.88117,838.60279 534.16116,838.60272 C 527.4554,838.60279 521.68555,840.90584 516.85159,845.5119 C 512.01759,850.11807 509.6006,857.8085 509.60062,868.58319 L 509.60062,868.58319 z M 580.74319,903.29999 L 580.74319,831.71796 L 590.21585,831.71796 L 590.21585,861.11249 L 627.42288,861.11249 L 627.42288,831.71796 L 636.89554,831.71796 L 636.89554,903.29999 L 627.42288,903.29999 L 627.42288,869.55975 L 590.21585,869.55975 L 590.21585,903.29999 L 580.74319,903.29999 z" />
<path d="M 199.28613,953.79999 L 199.28613,900.11346 L 217.77979,900.11346 C 221.95456,900.11352 225.14059,900.36987 227.33789,900.88251 C 230.41403,901.59057 233.03853,902.8723 235.21143,904.72772 C 238.04341,907.12035 240.16133,910.17821 241.56519,913.90131 C 242.96894,917.62449 243.67085,921.87863 243.6709,926.66376 C 243.67085,930.74093 243.19477,934.35421 242.24268,937.5036 C 241.29048,940.65303 240.06978,943.25923 238.58057,945.3222 C 237.09127,947.3852 235.46163,949.00873 233.69165,950.19281 C 231.92159,951.37689 229.78536,952.27411 227.28296,952.88446 C 224.78049,953.49481 221.90573,953.79999 218.65869,953.79999 L 199.28613,953.79999 z M 206.39063,947.46454 L 217.85303,947.46454 C 221.39304,947.46454 224.17014,947.13496 226.18433,946.47577 C 228.19845,945.8166 229.80367,944.88886 231,943.69257 C 232.68453,942.00801 233.99679,939.74361 234.93677,936.89935 C 235.87667,934.05513 236.34664,930.60665 236.34668,926.55389 C 236.34664,920.93869 235.42501,916.62351 233.58179,913.60834 C 231.73849,910.59324 229.4985,908.57298 226.86182,907.54755 C 224.95749,906.81517 221.89353,906.44896 217.66992,906.44891 L 206.39063,906.44891 L 206.39063,947.46454 z" style="font-size:75px;fill:#0000ff;font-family:Helvetica, Arial, sans-serif" />
<path d="M 250.77383,932.31561 L 250.77383,923.47772 L 277.77579,923.47772 L 277.77579,932.31561 L 250.77383,932.31561 z M 322.20938,925.72382 L 322.20938,917.32538 L 352.53165,917.27655 L 352.53165,943.83905 C 347.87663,947.54999 343.0752,950.34133 338.12735,952.21307 C 333.17938,954.08482 328.10126,955.02069 322.89297,955.02069 C 315.86169,955.02069 309.47335,953.51516 303.72794,950.50409 C 297.98248,947.49303 293.64492,943.13919 290.71524,937.44257 C 287.78555,931.74597 286.3207,925.38205 286.32071,918.35077 C 286.3207,911.38467 287.77741,904.88239 290.69083,898.84393 C 293.60423,892.80558 297.7953,888.32154 303.26407,885.39178 C 308.73279,882.46217 315.03161,880.99733 322.16055,880.99725 C 327.33629,880.99733 332.01565,881.83554 336.19864,883.5119 C 340.38152,885.1884 343.66114,887.52401 346.03751,890.51874 C 348.41374,893.51359 350.22038,897.41984 351.45743,902.23749 L 342.91251,904.58124 C 341.83823,900.93546 340.50359,898.07088 338.9086,895.98749 C 337.31349,893.90421 335.03485,892.23592 332.07266,890.9826 C 329.11037,889.72941 325.82262,889.10279 322.20938,889.10272 C 317.87992,889.10279 314.13643,889.76197 310.97891,891.08026 C 307.82133,892.39868 305.27414,894.13208 303.33731,896.28046 C 301.40044,898.42895 299.89491,900.78897 298.82071,903.36053 C 296.99778,907.78766 296.08632,912.58909 296.08633,917.76483 C 296.08632,924.14507 297.18495,929.48361 299.38223,933.78046 C 301.57948,938.07735 304.77772,941.26745 308.97696,943.35077 C 313.17615,945.43411 317.63578,946.47578 322.35587,946.47577 C 326.45738,946.47578 330.46128,945.68639 334.36758,944.1076 C 338.27378,942.52884 341.23601,940.84427 343.2543,939.05389 L 343.2543,925.72382 L 322.20938,925.72382 z M 365.1293,953.79999 L 365.1293,882.21796 L 373.91837,882.21796 L 373.91837,953.79999 L 365.1293,953.79999 z M 421.42813,934.80585 L 430.07071,935.92889 C 429.12665,941.88594 426.70966,946.54902 422.81973,949.91815 C 418.92972,953.28729 414.15271,954.97186 408.48868,954.97186 C 401.3923,954.97186 395.68756,952.65253 391.37442,948.01385 C 387.06126,943.37519 384.90469,936.72644 384.90469,928.06757 C 384.90469,922.46864 385.83242,917.56956 387.6879,913.3703 C 389.54336,909.17113 392.36725,906.02172 396.15958,903.92206 C 399.95188,901.8225 404.07785,900.7727 408.53751,900.77264 C 414.16898,900.7727 418.7751,902.19685 422.35587,905.0451 C 425.93655,907.89346 428.23147,911.93805 429.24063,917.17889 L 420.69571,918.49725 C 419.88187,915.01422 418.44144,912.39378 416.37442,910.63593 C 414.30733,908.87816 411.80896,907.99925 408.8793,907.99921 C 404.4522,907.99925 400.85519,909.58616 398.08829,912.75995 C 395.32135,915.93381 393.93788,920.95497 393.9379,927.82343 C 393.93788,934.78959 395.27252,939.85143 397.9418,943.00897 C 400.61105,946.16653 404.09412,947.74531 408.39102,947.7453 C 411.84151,947.74531 414.72237,946.68736 417.0336,944.57147 C 419.34476,942.4556 420.8096,939.20039 421.42813,934.80585 L 421.42813,934.80585 z" style="font-size:100px;fill:#0000ff;font-family:Helvetica, Arial, sans-serif" />
<path d="M 769.28613,953.79999 L 769.28613,900.11346 L 787.77979,900.11346 C 791.95456,900.11352 795.14059,900.36987 797.33789,900.88251 C 800.41403,901.59057 803.03853,902.8723 805.21143,904.72772 C 808.04341,907.12035 810.16133,910.17821 811.56519,913.90131 C 812.96894,917.62449 813.67085,921.87863 813.6709,926.66376 C 813.67085,930.74093 813.19477,934.35421 812.24268,937.5036 C 811.29048,940.65303 810.06978,943.25923 808.58057,945.3222 C 807.09127,947.3852 805.46163,949.00873 803.69165,950.19281 C 801.92159,951.37689 799.78536,952.27411 797.28296,952.88446 C 794.78049,953.49481 791.90573,953.79999 788.65869,953.79999 L 769.28613,953.79999 z M 776.39063,947.46454 L 787.85303,947.46454 C 791.39304,947.46454 794.17014,947.13496 796.18433,946.47577 C 798.19845,945.8166 799.80367,944.88886 801,943.69257 C 802.68453,942.00801 803.99679,939.74361 804.93677,936.89935 C 805.87667,934.05513 806.34664,930.60665 806.34668,926.55389 C 806.34664,920.93869 805.42501,916.62351 803.58179,913.60834 C 801.73849,910.59324 799.4985,908.57298 796.86182,907.54755 C 794.95749,906.81517 791.89353,906.44896 787.66992,906.44891 L 776.39063,906.44891 L 776.39063,947.46454 z" style="font-size:75px;fill:#0000ff;font-family:Helvetica, Arial, sans-serif" />
<path d="M 820.7738,932.31561 L 820.7738,923.47772 L 847.77576,923.47772 L 847.77576,932.31561 L 820.7738,932.31561 z M 892.20935,925.72382 L 892.20935,917.32538 L 922.53162,917.27655 L 922.53162,943.83905 C 917.8766,947.54999 913.07517,950.34133 908.12732,952.21307 C 903.17935,954.08482 898.10123,955.02069 892.89294,955.02069 C 885.86166,955.02069 879.47332,953.51516 873.72791,950.50409 C 867.98245,947.49303 863.64488,943.13919 860.71521,937.44257 C 857.78552,931.74597 856.32067,925.38205 856.32068,918.35077 C 856.32067,911.38467 857.77738,904.88239 860.6908,898.84393 C 863.60419,892.80558 867.79527,888.32154 873.26404,885.39178 C 878.73276,882.46217 885.03158,880.99733 892.16052,880.99725 C 897.33626,880.99733 902.01561,881.83554 906.19861,883.5119 C 910.38149,885.1884 913.66111,887.52401 916.03748,890.51874 C 918.41371,893.51359 920.22035,897.41984 921.4574,902.23749 L 912.91248,904.58124 C 911.8382,900.93546 910.50356,898.07088 908.90857,895.98749 C 907.31346,893.90421 905.03482,892.23592 902.07263,890.9826 C 899.11034,889.72941 895.82259,889.10279 892.20935,889.10272 C 887.87989,889.10279 884.1364,889.76197 880.97888,891.08026 C 877.8213,892.39868 875.2741,894.13208 873.33728,896.28046 C 871.40041,898.42895 869.89488,900.78897 868.82068,903.36053 C 866.99775,907.78766 866.08629,912.58909 866.0863,917.76483 C 866.08629,924.14507 867.18492,929.48361 869.3822,933.78046 C 871.57945,938.07735 874.77769,941.26745 878.97693,943.35077 C 883.17612,945.43411 887.63575,946.47578 892.35583,946.47577 C 896.45735,946.47578 900.46125,945.68639 904.36755,944.1076 C 908.27375,942.52884 911.23598,940.84427 913.25427,939.05389 L 913.25427,925.72382 L 892.20935,925.72382 z M 969.16248,947.4035 C 965.90723,950.17043 962.7741,952.12356 959.76306,953.26288 C 956.75197,954.4022 953.52117,954.97186 950.07068,954.97186 C 944.37405,954.97186 939.9958,953.58026 936.93591,950.79706 C 933.87601,948.01386 932.34607,944.45755 932.34607,940.12811 C 932.34607,937.58907 932.92386,935.26973 934.07947,933.1701 C 935.23506,931.07052 936.74873,929.38595 938.62048,928.11639 C 940.49222,926.84689 942.59996,925.8866 944.94373,925.23553 C 946.66897,924.77983 949.27313,924.34038 952.75623,923.91718 C 959.85255,923.07085 965.07715,922.06174 968.43005,920.88983 C 968.46257,919.68544 968.47884,918.92047 968.47888,918.59491 C 968.47884,915.01422 967.64876,912.49144 965.98865,911.02655 C 963.74252,909.04092 960.40593,908.04808 955.97888,908.04803 C 951.84474,908.04808 948.79299,908.77236 946.82361,910.22089 C 944.85419,911.6695 943.39749,914.23297 942.45349,917.91132 L 933.85974,916.73944 C 934.64099,913.0611 935.92679,910.09072 937.71716,907.82831 C 939.50752,905.56599 942.0954,903.82445 945.48083,902.6037 C 948.86623,901.38305 952.78875,900.7727 957.24841,900.77264 C 961.67546,900.7727 965.27247,901.29353 968.03943,902.33514 C 970.80631,903.37686 972.84082,904.68708 974.14294,906.26581 C 975.44498,907.84463 976.35644,909.83844 976.87732,912.24725 C 977.17024,913.74469 977.31672,916.44651 977.31677,920.35272 L 977.31677,932.07147 C 977.31672,940.24206 977.5039,945.4097 977.8783,947.5744 C 978.2526,949.73912 978.99315,951.81431 980.09998,953.79999 L 970.92029,953.79999 C 970.00879,951.97707 969.42285,949.84491 969.16248,947.4035 L 969.16248,947.4035 z M 968.43005,927.7746 C 965.23991,929.07671 960.45476,930.18347 954.07458,931.09491 C 950.46128,931.61577 947.90595,932.2017 946.40857,932.85272 C 944.91116,933.50378 943.75556,934.45593 942.94177,935.70917 C 942.12796,936.96244 941.72106,938.35404 941.72107,939.88397 C 941.72106,942.22773 942.6081,944.18086 944.3822,945.74335 C 946.15627,947.30585 948.7523,948.0871 952.17029,948.0871 C 955.55568,948.0871 958.56674,947.34654 961.20349,945.86542 C 963.84017,944.38431 965.77702,942.35794 967.01404,939.78632 C 967.95801,937.80065 968.43001,934.87097 968.43005,930.99725 L 968.43005,927.7746 z M 990.79333,953.79999 L 990.79333,882.21796 L 999.5824,882.21796 L 999.5824,953.79999 L 990.79333,953.79999 z" style="font-size:100px;fill:#0000ff;font-family:Helvetica, Arial, sans-serif" />
<path d="M 807.99316,1180.8 L 807.99316,1127.1135 L 815.09766,1127.1135 L 815.09766,1174.4646 L 841.53809,1174.4646 L 841.53809,1180.8 L 807.99316,1180.8 z" style="font-size:75px;fill:#0000ff;font-family:Helvetica, Arial, sans-serif" />
<path d="M 847.37384,1159.3157 L 847.37384,1150.4778 L 874.37579,1150.4778 L 874.37579,1159.3157 L 847.37384,1159.3157 z M 885.45978,1180.8 L 885.45978,1109.218 L 917.19806,1109.218 C 923.57822,1109.2181 928.42848,1109.861 931.74884,1111.1467 C 935.0691,1112.4326 937.72209,1114.7031 939.70782,1117.9583 C 941.69344,1121.2135 942.68628,1124.8105 942.68634,1128.7493 C 942.68628,1133.8274 941.0424,1138.108 937.7547,1141.5911 C 934.46688,1145.0742 929.38876,1147.2877 922.52032,1148.2317 C 925.02679,1149.4361 926.93108,1150.6243 928.23322,1151.7961 C 931.00009,1154.3352 933.62053,1157.5091 936.09454,1161.3176 L 948.54572,1180.8 L 936.63165,1180.8 L 927.159,1165.9075 C 924.39202,1161.6106 922.11338,1158.3229 920.32306,1156.0442 C 918.53265,1153.7656 916.92947,1152.1705 915.51349,1151.259 C 914.09744,1150.3476 912.65701,1149.7128 911.1922,1149.3547 C 910.11795,1149.1269 908.36014,1149.013 905.91876,1149.0129 L 894.93243,1149.0129 L 894.93243,1180.8 L 885.45978,1180.8 z M 894.93243,1140.8098 L 915.29376,1140.8098 C 919.62315,1140.8099 923.00856,1140.3623 925.45001,1139.467 C 927.89137,1138.5719 929.74684,1137.1396 931.01642,1135.1702 C 932.2859,1133.2008 932.92066,1131.0605 932.92072,1128.7493 C 932.92066,1125.3639 931.69182,1122.5807 929.23419,1120.3997 C 926.77646,1118.2187 922.89463,1117.1282 917.58868,1117.1282 L 894.93243,1117.1282 L 894.93243,1140.8098 z M 956.45587,1180.8 L 956.45587,1109.218 L 965.24493,1109.218 L 965.24493,1134.9016 C 969.34648,1130.1491 974.52225,1127.7728 980.77228,1127.7727 C 984.61339,1127.7728 987.94997,1128.5296 990.78204,1130.0432 C 993.61403,1131.5569 995.6404,1133.6484 996.86115,1136.3176 C 998.0818,1138.9869 998.69215,1142.8606 998.6922,1147.9387 L 998.6922,1180.8 L 989.90314,1180.8 L 989.90314,1147.9387 C 989.9031,1143.5442 988.95095,1140.346 987.04669,1138.344 C 985.14236,1136.3421 982.44868,1135.3411 978.96564,1135.3411 C 976.36144,1135.3411 973.9119,1136.0166 971.617,1137.3674 C 969.32206,1138.7184 967.68632,1140.5494 966.70978,1142.8606 C 965.7332,1145.1718 965.24492,1148.3619 965.24493,1152.4309 L 965.24493,1180.8 L 956.45587,1180.8 z M 1045.9578,1174.4036 C 1042.7026,1177.1705 1039.5694,1179.1236 1036.5584,1180.2629 C 1033.5473,1181.4023 1030.3165,1181.9719 1026.866,1181.9719 C 1021.1694,1181.9719 1016.7911,1180.5803 1013.7313,1177.7971 C 1010.6714,1175.0139 1009.1414,1171.4576 1009.1414,1167.1282 C 1009.1414,1164.5891 1009.7192,1162.2698 1010.8748,1160.1702 C 1012.0304,1158.0706 1013.5441,1156.386 1015.4158,1155.1165 C 1017.2876,1153.847 1019.3953,1152.8867 1021.7391,1152.2356 C 1023.4643,1151.7799 1026.0685,1151.3404 1029.5516,1150.9172 C 1036.6479,1150.0709 1041.8725,1149.0618 1045.2254,1147.8899 C 1045.2579,1146.6855 1045.2742,1145.9205 1045.2742,1145.595 C 1045.2742,1142.0143 1044.4441,1139.4915 1042.784,1138.0266 C 1040.5379,1136.041 1037.2013,1135.0481 1032.7742,1135.0481 C 1028.6401,1135.0481 1025.5883,1135.7724 1023.619,1137.2209 C 1021.6495,1138.6696 1020.1928,1141.233 1019.2488,1144.9114 L 1010.6551,1143.7395 C 1011.4363,1140.0612 1012.7221,1137.0908 1014.5125,1134.8284 C 1016.3029,1132.566 1018.8908,1130.8245 1022.2762,1129.6038 C 1025.6616,1128.3831 1029.5841,1127.7728 1034.0438,1127.7727 C 1038.4708,1127.7728 1042.0678,1128.2936 1044.8348,1129.3352 C 1047.6017,1130.3769 1049.6362,1131.6871 1050.9383,1133.2659 C 1052.2403,1134.8447 1053.1518,1136.8385 1053.6727,1139.2473 C 1053.9656,1140.7448 1054.1121,1143.4466 1054.1121,1147.3528 L 1054.1121,1159.0715 C 1054.1121,1167.2421 1054.2992,1172.4098 1054.6736,1174.5745 C 1055.0479,1176.7392 1055.7885,1178.8144 1056.8953,1180.8 L 1047.7156,1180.8 C 1046.8041,1178.9771 1046.2182,1176.845 1045.9578,1174.4036 L 1045.9578,1174.4036 z M 1045.2254,1154.7747 C 1042.0353,1156.0768 1037.2501,1157.1835 1030.8699,1158.095 C 1027.2566,1158.6158 1024.7013,1159.2018 1023.2039,1159.8528 C 1021.7065,1160.5038 1020.5509,1161.456 1019.7371,1162.7092 C 1018.9233,1163.9625 1018.5164,1165.3541 1018.5164,1166.884 C 1018.5164,1169.2278 1019.4034,1171.1809 1021.1776,1172.7434 C 1022.9516,1174.3059 1025.5476,1175.0872 1028.9656,1175.0872 C 1032.351,1175.0872 1035.3621,1174.3466 1037.9988,1172.8655 C 1040.6355,1171.3844 1042.5724,1169.358 1043.8094,1166.7864 C 1044.7534,1164.8007 1045.2254,1161.871 1045.2254,1157.9973 L 1045.2254,1154.7747 z" style="font-size:100px;fill:#0000ff;font-family:Helvetica, Arial, sans-serif" />
</g>
</svg>

